<mxfile host="app.diagrams.net" modified="2022-06-15T15:57:22.914Z" agent="5.0 (Windows NT 10.0; Win64; x64) AppleWebKit/537.36 (KHTML, like Gecko) Chrome/102.0.0.0 Safari/537.36" etag="CXLzEOGB31IrtCvszU-n" version="20.0.1" type="github">
  <diagram id="1Y-h_gMSpbXjNAjZNNcW" name="Page-1">
    <mxGraphModel dx="1422" dy="762" grid="1" gridSize="10" guides="1" tooltips="1" connect="1" arrows="1" fold="1" page="1" pageScale="1" pageWidth="827" pageHeight="1169" math="0" shadow="0">
      <root>
        <mxCell id="0" />
        <mxCell id="1" parent="0" />
        <mxCell id="cQ-00Yjo2fR3DmtyePb2-1" value="movie_theater" style="swimlane;fontStyle=0;childLayout=stackLayout;horizontal=1;startSize=30;horizontalStack=0;resizeParent=1;resizeParentMax=0;resizeLast=0;collapsible=1;marginBottom=0;rounded=1;swimlaneLine=1;verticalAlign=middle;" vertex="1" parent="1">
          <mxGeometry x="325" y="220" width="120" height="180" as="geometry" />
        </mxCell>
        <mxCell id="cQ-00Yjo2fR3DmtyePb2-2" value="id" style="text;strokeColor=none;fillColor=none;align=left;verticalAlign=middle;spacingLeft=4;spacingRight=4;overflow=hidden;points=[[0,0.5],[1,0.5]];portConstraint=eastwest;rotatable=0;fontStyle=4" vertex="1" parent="cQ-00Yjo2fR3DmtyePb2-1">
          <mxGeometry y="30" width="120" height="30" as="geometry" />
        </mxCell>
        <mxCell id="cQ-00Yjo2fR3DmtyePb2-3" value="name" style="text;strokeColor=none;fillColor=none;align=left;verticalAlign=middle;spacingLeft=4;spacingRight=4;overflow=hidden;points=[[0,0.5],[1,0.5]];portConstraint=eastwest;rotatable=0;" vertex="1" parent="cQ-00Yjo2fR3DmtyePb2-1">
          <mxGeometry y="60" width="120" height="30" as="geometry" />
        </mxCell>
        <object label="city" id="cQ-00Yjo2fR3DmtyePb2-4">
          <mxCell style="text;strokeColor=none;fillColor=none;align=left;verticalAlign=middle;spacingLeft=4;spacingRight=4;overflow=hidden;points=[[0,0.5],[1,0.5]];portConstraint=eastwest;rotatable=0;" vertex="1" parent="cQ-00Yjo2fR3DmtyePb2-1">
            <mxGeometry y="90" width="120" height="30" as="geometry" />
          </mxCell>
        </object>
        <mxCell id="cQ-00Yjo2fR3DmtyePb2-5" value="address" style="text;strokeColor=none;fillColor=none;align=left;verticalAlign=middle;spacingLeft=4;spacingRight=4;overflow=hidden;points=[[0,0.5],[1,0.5]];portConstraint=eastwest;rotatable=0;" vertex="1" parent="cQ-00Yjo2fR3DmtyePb2-1">
          <mxGeometry y="120" width="120" height="30" as="geometry" />
        </mxCell>
        <mxCell id="cQ-00Yjo2fR3DmtyePb2-6" value="zipcode" style="text;strokeColor=none;fillColor=none;align=left;verticalAlign=middle;spacingLeft=4;spacingRight=4;overflow=hidden;points=[[0,0.5],[1,0.5]];portConstraint=eastwest;rotatable=0;" vertex="1" parent="cQ-00Yjo2fR3DmtyePb2-1">
          <mxGeometry y="150" width="120" height="30" as="geometry" />
        </mxCell>
        <mxCell id="cQ-00Yjo2fR3DmtyePb2-7" value="admin" style="swimlane;fontStyle=0;childLayout=stackLayout;horizontal=1;startSize=30;horizontalStack=0;resizeParent=1;resizeParentMax=0;resizeLast=0;collapsible=1;marginBottom=0;rounded=1;" vertex="1" parent="1">
          <mxGeometry x="590" y="40" width="140" height="120" as="geometry" />
        </mxCell>
        <mxCell id="cQ-00Yjo2fR3DmtyePb2-8" value="id" style="text;strokeColor=none;fillColor=none;align=left;verticalAlign=middle;spacingLeft=4;spacingRight=4;overflow=hidden;points=[[0,0.5],[1,0.5]];portConstraint=eastwest;rotatable=0;rounded=1;fontStyle=4" vertex="1" parent="cQ-00Yjo2fR3DmtyePb2-7">
          <mxGeometry y="30" width="140" height="30" as="geometry" />
        </mxCell>
        <mxCell id="cQ-00Yjo2fR3DmtyePb2-9" value="username" style="text;strokeColor=none;fillColor=none;align=left;verticalAlign=middle;spacingLeft=4;spacingRight=4;overflow=hidden;points=[[0,0.5],[1,0.5]];portConstraint=eastwest;rotatable=0;rounded=1;" vertex="1" parent="cQ-00Yjo2fR3DmtyePb2-7">
          <mxGeometry y="60" width="140" height="30" as="geometry" />
        </mxCell>
        <mxCell id="cQ-00Yjo2fR3DmtyePb2-10" value="password" style="text;strokeColor=none;fillColor=none;align=left;verticalAlign=middle;spacingLeft=4;spacingRight=4;overflow=hidden;points=[[0,0.5],[1,0.5]];portConstraint=eastwest;rotatable=0;rounded=1;" vertex="1" parent="cQ-00Yjo2fR3DmtyePb2-7">
          <mxGeometry y="90" width="140" height="30" as="geometry" />
        </mxCell>
        <mxCell id="cQ-00Yjo2fR3DmtyePb2-11" value="" style="endArrow=none;html=1;rounded=0;startArrow=none;" edge="1" parent="1" source="cQ-00Yjo2fR3DmtyePb2-13">
          <mxGeometry relative="1" as="geometry">
            <mxPoint x="370" y="80" as="sourcePoint" />
            <mxPoint x="590" y="100" as="targetPoint" />
          </mxGeometry>
        </mxCell>
        <mxCell id="cQ-00Yjo2fR3DmtyePb2-12" value="1, n" style="resizable=0;html=1;align=right;verticalAlign=bottom;rounded=1;fillColor=#FFF5F5;" connectable="0" vertex="1" parent="cQ-00Yjo2fR3DmtyePb2-11">
          <mxGeometry x="1" relative="1" as="geometry">
            <mxPoint x="-3" as="offset" />
          </mxGeometry>
        </mxCell>
        <mxCell id="cQ-00Yjo2fR3DmtyePb2-13" value="manages" style="rounded=1;whiteSpace=wrap;html=1;fillColor=#ffe6cc;strokeColor=#d79b00;" vertex="1" parent="1">
          <mxGeometry x="340" y="70" width="90" height="60" as="geometry" />
        </mxCell>
        <mxCell id="cQ-00Yjo2fR3DmtyePb2-14" value="" style="endArrow=none;html=1;rounded=0;exitX=0.5;exitY=0;exitDx=0;exitDy=0;" edge="1" parent="1" source="cQ-00Yjo2fR3DmtyePb2-1" target="cQ-00Yjo2fR3DmtyePb2-13">
          <mxGeometry relative="1" as="geometry">
            <mxPoint x="170" y="80" as="sourcePoint" />
            <mxPoint x="390" y="80" as="targetPoint" />
          </mxGeometry>
        </mxCell>
        <mxCell id="cQ-00Yjo2fR3DmtyePb2-15" value="1, n" style="resizable=0;html=1;align=left;verticalAlign=bottom;rounded=1;fillColor=#FFF5F5;" connectable="0" vertex="1" parent="cQ-00Yjo2fR3DmtyePb2-14">
          <mxGeometry x="-1" relative="1" as="geometry">
            <mxPoint as="offset" />
          </mxGeometry>
        </mxCell>
        <mxCell id="cQ-00Yjo2fR3DmtyePb2-16" value="movie_room" style="swimlane;fontStyle=0;childLayout=stackLayout;horizontal=1;startSize=30;horizontalStack=0;resizeParent=1;resizeParentMax=0;resizeLast=0;collapsible=1;marginBottom=0;rounded=1;" vertex="1" parent="1">
          <mxGeometry x="40" y="250" width="140" height="120" as="geometry" />
        </mxCell>
        <mxCell id="cQ-00Yjo2fR3DmtyePb2-17" value="id" style="text;strokeColor=none;fillColor=none;align=left;verticalAlign=middle;spacingLeft=4;spacingRight=4;overflow=hidden;points=[[0,0.5],[1,0.5]];portConstraint=eastwest;rotatable=0;rounded=1;fontStyle=4" vertex="1" parent="cQ-00Yjo2fR3DmtyePb2-16">
          <mxGeometry y="30" width="140" height="30" as="geometry" />
        </mxCell>
        <mxCell id="cQ-00Yjo2fR3DmtyePb2-18" value="movie_room_number" style="text;strokeColor=none;fillColor=none;align=left;verticalAlign=middle;spacingLeft=4;spacingRight=4;overflow=hidden;points=[[0,0.5],[1,0.5]];portConstraint=eastwest;rotatable=0;rounded=1;" vertex="1" parent="cQ-00Yjo2fR3DmtyePb2-16">
          <mxGeometry y="60" width="140" height="30" as="geometry" />
        </mxCell>
        <mxCell id="cQ-00Yjo2fR3DmtyePb2-19" value="seats" style="text;strokeColor=none;fillColor=none;align=left;verticalAlign=middle;spacingLeft=4;spacingRight=4;overflow=hidden;points=[[0,0.5],[1,0.5]];portConstraint=eastwest;rotatable=0;rounded=1;" vertex="1" parent="cQ-00Yjo2fR3DmtyePb2-16">
          <mxGeometry y="90" width="140" height="30" as="geometry" />
        </mxCell>
        <mxCell id="cQ-00Yjo2fR3DmtyePb2-20" value="" style="endArrow=none;html=1;rounded=0;" edge="1" parent="1">
          <mxGeometry relative="1" as="geometry">
            <mxPoint x="180" y="320" as="sourcePoint" />
            <mxPoint x="325" y="320" as="targetPoint" />
          </mxGeometry>
        </mxCell>
        <mxCell id="cQ-00Yjo2fR3DmtyePb2-21" value="1, n" style="resizable=0;html=1;align=left;verticalAlign=bottom;rounded=1;fillColor=#FFF5F5;" connectable="0" vertex="1" parent="cQ-00Yjo2fR3DmtyePb2-20">
          <mxGeometry x="-1" relative="1" as="geometry" />
        </mxCell>
        <mxCell id="cQ-00Yjo2fR3DmtyePb2-22" value="1" style="resizable=0;html=1;align=right;verticalAlign=bottom;rounded=1;fillColor=#FFF5F5;" connectable="0" vertex="1" parent="cQ-00Yjo2fR3DmtyePb2-20">
          <mxGeometry x="1" relative="1" as="geometry">
            <mxPoint x="-2" as="offset" />
          </mxGeometry>
        </mxCell>
        <mxCell id="cQ-00Yjo2fR3DmtyePb2-23" value="has" style="rounded=1;whiteSpace=wrap;html=1;fillColor=#ffe6cc;strokeColor=#d79b00;" vertex="1" parent="1">
          <mxGeometry x="210" y="290" width="90" height="60" as="geometry" />
        </mxCell>
        <mxCell id="cQ-00Yjo2fR3DmtyePb2-24" value="movie_session" style="swimlane;fontStyle=0;childLayout=stackLayout;horizontal=1;startSize=30;horizontalStack=0;resizeParent=1;resizeParentMax=0;resizeLast=0;collapsible=1;marginBottom=0;rounded=1;" vertex="1" parent="1">
          <mxGeometry x="40" y="550" width="140" height="120" as="geometry" />
        </mxCell>
        <mxCell id="cQ-00Yjo2fR3DmtyePb2-25" value="id" style="text;strokeColor=none;fillColor=none;align=left;verticalAlign=middle;spacingLeft=4;spacingRight=4;overflow=hidden;points=[[0,0.5],[1,0.5]];portConstraint=eastwest;rotatable=0;rounded=1;fontStyle=4" vertex="1" parent="cQ-00Yjo2fR3DmtyePb2-24">
          <mxGeometry y="30" width="140" height="30" as="geometry" />
        </mxCell>
        <mxCell id="cQ-00Yjo2fR3DmtyePb2-26" value="date" style="text;strokeColor=none;fillColor=none;align=left;verticalAlign=middle;spacingLeft=4;spacingRight=4;overflow=hidden;points=[[0,0.5],[1,0.5]];portConstraint=eastwest;rotatable=0;rounded=1;" vertex="1" parent="cQ-00Yjo2fR3DmtyePb2-24">
          <mxGeometry y="60" width="140" height="30" as="geometry" />
        </mxCell>
        <mxCell id="cQ-00Yjo2fR3DmtyePb2-27" value="time" style="text;strokeColor=none;fillColor=none;align=left;verticalAlign=middle;spacingLeft=4;spacingRight=4;overflow=hidden;points=[[0,0.5],[1,0.5]];portConstraint=eastwest;rotatable=0;rounded=1;" vertex="1" parent="cQ-00Yjo2fR3DmtyePb2-24">
          <mxGeometry y="90" width="140" height="30" as="geometry" />
        </mxCell>
        <mxCell id="cQ-00Yjo2fR3DmtyePb2-28" value="" style="endArrow=none;html=1;rounded=0;entryX=0.5;entryY=0;entryDx=0;entryDy=0;" edge="1" parent="1" target="cQ-00Yjo2fR3DmtyePb2-24">
          <mxGeometry relative="1" as="geometry">
            <mxPoint x="110" y="370" as="sourcePoint" />
            <mxPoint x="270" y="370" as="targetPoint" />
          </mxGeometry>
        </mxCell>
        <mxCell id="cQ-00Yjo2fR3DmtyePb2-29" value="1, n" style="resizable=0;html=1;align=left;verticalAlign=bottom;rounded=1;fillColor=#FFF5F5;" connectable="0" vertex="1" parent="cQ-00Yjo2fR3DmtyePb2-28">
          <mxGeometry x="-1" relative="1" as="geometry">
            <mxPoint y="20" as="offset" />
          </mxGeometry>
        </mxCell>
        <mxCell id="cQ-00Yjo2fR3DmtyePb2-30" value="1, n" style="resizable=0;html=1;align=right;verticalAlign=bottom;rounded=1;fillColor=#FFF5F5;" connectable="0" vertex="1" parent="cQ-00Yjo2fR3DmtyePb2-28">
          <mxGeometry x="1" relative="1" as="geometry">
            <mxPoint x="23" as="offset" />
          </mxGeometry>
        </mxCell>
        <mxCell id="cQ-00Yjo2fR3DmtyePb2-31" value="hosts" style="rounded=1;whiteSpace=wrap;html=1;fillColor=#ffe6cc;strokeColor=#d79b00;" vertex="1" parent="1">
          <mxGeometry x="50" y="430" width="120" height="60" as="geometry" />
        </mxCell>
        <mxCell id="cQ-00Yjo2fR3DmtyePb2-32" value="movie" style="swimlane;fontStyle=0;childLayout=stackLayout;horizontal=1;startSize=30;horizontalStack=0;resizeParent=1;resizeParentMax=0;resizeLast=0;collapsible=1;marginBottom=0;rounded=1;" vertex="1" parent="1">
          <mxGeometry x="430" y="505" width="140" height="210" as="geometry" />
        </mxCell>
        <mxCell id="cQ-00Yjo2fR3DmtyePb2-33" value="id" style="text;strokeColor=none;fillColor=none;align=left;verticalAlign=middle;spacingLeft=4;spacingRight=4;overflow=hidden;points=[[0,0.5],[1,0.5]];portConstraint=eastwest;rotatable=0;rounded=1;fontStyle=4" vertex="1" parent="cQ-00Yjo2fR3DmtyePb2-32">
          <mxGeometry y="30" width="140" height="30" as="geometry" />
        </mxCell>
        <mxCell id="cQ-00Yjo2fR3DmtyePb2-34" value="name" style="text;strokeColor=none;fillColor=none;align=left;verticalAlign=middle;spacingLeft=4;spacingRight=4;overflow=hidden;points=[[0,0.5],[1,0.5]];portConstraint=eastwest;rotatable=0;rounded=1;" vertex="1" parent="cQ-00Yjo2fR3DmtyePb2-32">
          <mxGeometry y="60" width="140" height="30" as="geometry" />
        </mxCell>
        <mxCell id="cQ-00Yjo2fR3DmtyePb2-35" value="synopsis" style="text;strokeColor=none;fillColor=none;align=left;verticalAlign=middle;spacingLeft=4;spacingRight=4;overflow=hidden;points=[[0,0.5],[1,0.5]];portConstraint=eastwest;rotatable=0;rounded=1;" vertex="1" parent="cQ-00Yjo2fR3DmtyePb2-32">
          <mxGeometry y="90" width="140" height="30" as="geometry" />
        </mxCell>
        <mxCell id="cQ-00Yjo2fR3DmtyePb2-36" value="running_time" style="text;strokeColor=none;fillColor=none;align=left;verticalAlign=middle;spacingLeft=4;spacingRight=4;overflow=hidden;points=[[0,0.5],[1,0.5]];portConstraint=eastwest;rotatable=0;rounded=1;" vertex="1" parent="cQ-00Yjo2fR3DmtyePb2-32">
          <mxGeometry y="120" width="140" height="30" as="geometry" />
        </mxCell>
        <mxCell id="cQ-00Yjo2fR3DmtyePb2-37" value="genre" style="text;strokeColor=none;fillColor=none;align=left;verticalAlign=middle;spacingLeft=4;spacingRight=4;overflow=hidden;points=[[0,0.5],[1,0.5]];portConstraint=eastwest;rotatable=0;rounded=1;" vertex="1" parent="cQ-00Yjo2fR3DmtyePb2-32">
          <mxGeometry y="150" width="140" height="30" as="geometry" />
        </mxCell>
        <mxCell id="cQ-00Yjo2fR3DmtyePb2-38" value="rating" style="text;strokeColor=none;fillColor=none;align=left;verticalAlign=middle;spacingLeft=4;spacingRight=4;overflow=hidden;points=[[0,0.5],[1,0.5]];portConstraint=eastwest;rotatable=0;rounded=1;" vertex="1" parent="cQ-00Yjo2fR3DmtyePb2-32">
          <mxGeometry y="180" width="140" height="30" as="geometry" />
        </mxCell>
        <mxCell id="cQ-00Yjo2fR3DmtyePb2-39" value="" style="endArrow=none;html=1;rounded=0;entryX=0;entryY=0.5;entryDx=0;entryDy=0;" edge="1" parent="1" target="cQ-00Yjo2fR3DmtyePb2-35">
          <mxGeometry relative="1" as="geometry">
            <mxPoint x="180" y="609.66" as="sourcePoint" />
            <mxPoint x="340" y="609.66" as="targetPoint" />
          </mxGeometry>
        </mxCell>
        <mxCell id="cQ-00Yjo2fR3DmtyePb2-40" value="1" style="resizable=0;html=1;align=right;verticalAlign=bottom;rounded=1;fillColor=#FFF5F5;" connectable="0" vertex="1" parent="cQ-00Yjo2fR3DmtyePb2-39">
          <mxGeometry x="1" relative="1" as="geometry">
            <mxPoint x="-2" as="offset" />
          </mxGeometry>
        </mxCell>
        <mxCell id="cQ-00Yjo2fR3DmtyePb2-41" value="&lt;span style=&quot;color: rgba(0, 0, 0, 0); font-family: monospace; font-size: 0px; text-align: start; background-color: rgb(248, 249, 250);&quot;&gt;%3CmxGraphModel%3E%3Croot%3E%3CmxCell%20id%3D%220%22%2F%3E%3CmxCell%20id%3D%221%22%20parent%3D%220%22%2F%3E%3CmxCell%20id%3D%222%22%20value%3D%221%2C%20n%22%20style%3D%22resizable%3D0%3Bhtml%3D1%3Balign%3Dright%3BverticalAlign%3Dbottom%3Brounded%3D1%3BfillColor%3D%23FFF5F5%3B%22%20connectable%3D%220%22%20vertex%3D%221%22%20parent%3D%221%22%3E%3CmxGeometry%20x%3D%22438.3445960676315%22%20y%3D%22610.000468650652%22%20as%3D%22geometry%22%2F%3E%3C%2FmxCell%3E%3C%2Froot%3E%3C%2FmxGraphModel%3E&lt;/span&gt;" style="edgeLabel;html=1;align=center;verticalAlign=middle;resizable=0;points=[];" vertex="1" connectable="0" parent="cQ-00Yjo2fR3DmtyePb2-39">
          <mxGeometry x="-0.9004" y="1" relative="1" as="geometry">
            <mxPoint as="offset" />
          </mxGeometry>
        </mxCell>
        <mxCell id="cQ-00Yjo2fR3DmtyePb2-42" value="1, n" style="edgeLabel;html=1;align=center;verticalAlign=middle;resizable=0;points=[];labelBackgroundColor=none;" vertex="1" connectable="0" parent="cQ-00Yjo2fR3DmtyePb2-39">
          <mxGeometry x="-0.8949" y="1" relative="1" as="geometry">
            <mxPoint x="-1" y="-9" as="offset" />
          </mxGeometry>
        </mxCell>
        <mxCell id="cQ-00Yjo2fR3DmtyePb2-43" value="runs" style="rounded=1;whiteSpace=wrap;html=1;fillColor=#ffe6cc;strokeColor=#d79b00;" vertex="1" parent="1">
          <mxGeometry x="250" y="580" width="120" height="60" as="geometry" />
        </mxCell>
        <mxCell id="cQ-00Yjo2fR3DmtyePb2-44" value="booking" style="swimlane;fontStyle=0;childLayout=stackLayout;horizontal=1;startSize=30;horizontalStack=0;resizeParent=1;resizeParentMax=0;resizeLast=0;collapsible=1;marginBottom=0;rounded=1;arcSize=14;" vertex="1" parent="1">
          <mxGeometry x="240" y="800" width="140" height="150" as="geometry" />
        </mxCell>
        <mxCell id="cQ-00Yjo2fR3DmtyePb2-45" value="id" style="text;strokeColor=none;fillColor=none;align=left;verticalAlign=middle;spacingLeft=4;spacingRight=4;overflow=hidden;points=[[0,0.5],[1,0.5]];portConstraint=eastwest;rotatable=0;rounded=1;fontStyle=4" vertex="1" parent="cQ-00Yjo2fR3DmtyePb2-44">
          <mxGeometry y="30" width="140" height="30" as="geometry" />
        </mxCell>
        <mxCell id="cQ-00Yjo2fR3DmtyePb2-46" value="booking_date" style="text;strokeColor=none;fillColor=none;align=left;verticalAlign=middle;spacingLeft=4;spacingRight=4;overflow=hidden;points=[[0,0.5],[1,0.5]];portConstraint=eastwest;rotatable=0;rounded=1;" vertex="1" parent="cQ-00Yjo2fR3DmtyePb2-44">
          <mxGeometry y="60" width="140" height="30" as="geometry" />
        </mxCell>
        <mxCell id="cQ-00Yjo2fR3DmtyePb2-47" value="payment_type" style="text;strokeColor=none;fillColor=none;align=left;verticalAlign=middle;spacingLeft=4;spacingRight=4;overflow=hidden;points=[[0,0.5],[1,0.5]];portConstraint=eastwest;rotatable=0;rounded=1;" vertex="1" parent="cQ-00Yjo2fR3DmtyePb2-44">
          <mxGeometry y="90" width="140" height="30" as="geometry" />
        </mxCell>
        <mxCell id="cQ-00Yjo2fR3DmtyePb2-48" value="payment_date" style="text;strokeColor=none;fillColor=none;align=left;verticalAlign=middle;spacingLeft=4;spacingRight=4;overflow=hidden;points=[[0,0.5],[1,0.5]];portConstraint=eastwest;rotatable=0;rounded=1;" vertex="1" parent="cQ-00Yjo2fR3DmtyePb2-44">
          <mxGeometry y="120" width="140" height="30" as="geometry" />
        </mxCell>
        <mxCell id="cQ-00Yjo2fR3DmtyePb2-49" value="" style="endArrow=none;html=1;rounded=0;" edge="1" parent="1">
          <mxGeometry relative="1" as="geometry">
            <mxPoint x="110" y="670" as="sourcePoint" />
            <mxPoint x="110" y="880" as="targetPoint" />
          </mxGeometry>
        </mxCell>
        <mxCell id="cQ-00Yjo2fR3DmtyePb2-50" value="1" style="resizable=0;html=1;align=left;verticalAlign=bottom;rounded=1;labelBackgroundColor=none;fillColor=#FFF5F5;" connectable="0" vertex="1" parent="cQ-00Yjo2fR3DmtyePb2-49">
          <mxGeometry x="-1" relative="1" as="geometry">
            <mxPoint x="1" y="20" as="offset" />
          </mxGeometry>
        </mxCell>
        <mxCell id="cQ-00Yjo2fR3DmtyePb2-51" value="1, n" style="resizable=0;html=1;align=right;verticalAlign=bottom;rounded=1;labelBackgroundColor=none;fillColor=#FFF5F5;" connectable="0" vertex="1" parent="cQ-00Yjo2fR3DmtyePb2-49">
          <mxGeometry x="1" relative="1" as="geometry">
            <mxPoint x="128" as="offset" />
          </mxGeometry>
        </mxCell>
        <mxCell id="cQ-00Yjo2fR3DmtyePb2-52" value="" style="endArrow=none;html=1;rounded=0;" edge="1" parent="1">
          <mxGeometry relative="1" as="geometry">
            <mxPoint x="110" y="880" as="sourcePoint" />
            <mxPoint x="240" y="880" as="targetPoint" />
          </mxGeometry>
        </mxCell>
        <mxCell id="cQ-00Yjo2fR3DmtyePb2-53" value="customer" style="swimlane;fontStyle=0;childLayout=stackLayout;horizontal=1;startSize=30;horizontalStack=0;resizeParent=1;resizeParentMax=0;resizeLast=0;collapsible=1;marginBottom=0;rounded=1;labelBackgroundColor=none;" vertex="1" parent="1">
          <mxGeometry x="480" y="980" width="140" height="180" as="geometry" />
        </mxCell>
        <mxCell id="cQ-00Yjo2fR3DmtyePb2-54" value="id" style="text;strokeColor=none;fillColor=none;align=left;verticalAlign=middle;spacingLeft=4;spacingRight=4;overflow=hidden;points=[[0,0.5],[1,0.5]];portConstraint=eastwest;rotatable=0;rounded=1;labelBackgroundColor=none;fontStyle=4" vertex="1" parent="cQ-00Yjo2fR3DmtyePb2-53">
          <mxGeometry y="30" width="140" height="30" as="geometry" />
        </mxCell>
        <mxCell id="cQ-00Yjo2fR3DmtyePb2-55" value="lastname" style="text;strokeColor=none;fillColor=none;align=left;verticalAlign=middle;spacingLeft=4;spacingRight=4;overflow=hidden;points=[[0,0.5],[1,0.5]];portConstraint=eastwest;rotatable=0;rounded=1;labelBackgroundColor=none;" vertex="1" parent="cQ-00Yjo2fR3DmtyePb2-53">
          <mxGeometry y="60" width="140" height="30" as="geometry" />
        </mxCell>
        <mxCell id="cQ-00Yjo2fR3DmtyePb2-56" value="firstname" style="text;strokeColor=none;fillColor=none;align=left;verticalAlign=middle;spacingLeft=4;spacingRight=4;overflow=hidden;points=[[0,0.5],[1,0.5]];portConstraint=eastwest;rotatable=0;rounded=1;labelBackgroundColor=none;" vertex="1" parent="cQ-00Yjo2fR3DmtyePb2-53">
          <mxGeometry y="90" width="140" height="30" as="geometry" />
        </mxCell>
        <mxCell id="cQ-00Yjo2fR3DmtyePb2-57" value="username" style="text;strokeColor=none;fillColor=none;align=left;verticalAlign=middle;spacingLeft=4;spacingRight=4;overflow=hidden;points=[[0,0.5],[1,0.5]];portConstraint=eastwest;rotatable=0;rounded=1;labelBackgroundColor=none;" vertex="1" parent="cQ-00Yjo2fR3DmtyePb2-53">
          <mxGeometry y="120" width="140" height="30" as="geometry" />
        </mxCell>
        <mxCell id="cQ-00Yjo2fR3DmtyePb2-58" value="password" style="text;strokeColor=none;fillColor=none;align=left;verticalAlign=middle;spacingLeft=4;spacingRight=4;overflow=hidden;points=[[0,0.5],[1,0.5]];portConstraint=eastwest;rotatable=0;rounded=1;labelBackgroundColor=none;" vertex="1" parent="cQ-00Yjo2fR3DmtyePb2-53">
          <mxGeometry y="150" width="140" height="30" as="geometry" />
        </mxCell>
        <mxCell id="cQ-00Yjo2fR3DmtyePb2-59" value="" style="endArrow=none;html=1;rounded=0;entryX=0;entryY=0.333;entryDx=0;entryDy=0;entryPerimeter=0;" edge="1" parent="1" target="cQ-00Yjo2fR3DmtyePb2-56">
          <mxGeometry relative="1" as="geometry">
            <mxPoint x="310" y="950" as="sourcePoint" />
            <mxPoint x="470" y="950" as="targetPoint" />
            <Array as="points">
              <mxPoint x="310" y="1080" />
            </Array>
          </mxGeometry>
        </mxCell>
        <mxCell id="cQ-00Yjo2fR3DmtyePb2-60" value="1" style="resizable=0;html=1;align=left;verticalAlign=bottom;rounded=1;labelBackgroundColor=none;fillColor=#FFF5F5;" connectable="0" vertex="1" parent="cQ-00Yjo2fR3DmtyePb2-59">
          <mxGeometry x="-1" relative="1" as="geometry">
            <mxPoint x="2" y="19" as="offset" />
          </mxGeometry>
        </mxCell>
        <mxCell id="cQ-00Yjo2fR3DmtyePb2-61" value="1, n" style="resizable=0;html=1;align=right;verticalAlign=bottom;rounded=1;labelBackgroundColor=none;fillColor=#FFF5F5;" connectable="0" vertex="1" parent="cQ-00Yjo2fR3DmtyePb2-59">
          <mxGeometry x="1" relative="1" as="geometry">
            <mxPoint x="-4" as="offset" />
          </mxGeometry>
        </mxCell>
        <mxCell id="cQ-00Yjo2fR3DmtyePb2-62" value="payment" style="swimlane;fontStyle=0;childLayout=stackLayout;horizontal=1;startSize=26;horizontalStack=0;resizeParent=1;resizeParentMax=0;resizeLast=0;collapsible=1;marginBottom=0;align=center;fontSize=14;rounded=1;labelBackgroundColor=none;" vertex="1" parent="1">
          <mxGeometry x="550" y="817" width="160" height="116" as="geometry" />
        </mxCell>
        <mxCell id="cQ-00Yjo2fR3DmtyePb2-63" value="id" style="text;strokeColor=none;fillColor=none;spacingLeft=4;spacingRight=4;overflow=hidden;rotatable=0;points=[[0,0.5],[1,0.5]];portConstraint=eastwest;fontSize=12;rounded=1;labelBackgroundColor=none;fontStyle=4" vertex="1" parent="cQ-00Yjo2fR3DmtyePb2-62">
          <mxGeometry y="26" width="160" height="30" as="geometry" />
        </mxCell>
        <mxCell id="cQ-00Yjo2fR3DmtyePb2-64" value="type" style="text;strokeColor=none;fillColor=none;spacingLeft=4;spacingRight=4;overflow=hidden;rotatable=0;points=[[0,0.5],[1,0.5]];portConstraint=eastwest;fontSize=12;rounded=1;labelBackgroundColor=none;" vertex="1" parent="cQ-00Yjo2fR3DmtyePb2-62">
          <mxGeometry y="56" width="160" height="30" as="geometry" />
        </mxCell>
        <mxCell id="cQ-00Yjo2fR3DmtyePb2-65" value="price" style="text;strokeColor=none;fillColor=none;spacingLeft=4;spacingRight=4;overflow=hidden;rotatable=0;points=[[0,0.5],[1,0.5]];portConstraint=eastwest;fontSize=12;rounded=1;labelBackgroundColor=none;" vertex="1" parent="cQ-00Yjo2fR3DmtyePb2-62">
          <mxGeometry y="86" width="160" height="30" as="geometry" />
        </mxCell>
        <mxCell id="cQ-00Yjo2fR3DmtyePb2-66" value="" style="endArrow=none;html=1;rounded=0;" edge="1" parent="1">
          <mxGeometry relative="1" as="geometry">
            <mxPoint x="380" y="880" as="sourcePoint" />
            <mxPoint x="550" y="880" as="targetPoint" />
          </mxGeometry>
        </mxCell>
        <mxCell id="cQ-00Yjo2fR3DmtyePb2-67" value="1, n" style="resizable=0;html=1;align=left;verticalAlign=bottom;rounded=1;labelBackgroundColor=none;fillColor=#FFF5F5;" connectable="0" vertex="1" parent="cQ-00Yjo2fR3DmtyePb2-66">
          <mxGeometry x="-1" relative="1" as="geometry">
            <mxPoint x="1" as="offset" />
          </mxGeometry>
        </mxCell>
        <mxCell id="cQ-00Yjo2fR3DmtyePb2-68" value="1" style="resizable=0;html=1;align=right;verticalAlign=bottom;rounded=1;labelBackgroundColor=none;fillColor=#FFF5F5;" connectable="0" vertex="1" parent="cQ-00Yjo2fR3DmtyePb2-66">
          <mxGeometry x="1" relative="1" as="geometry">
            <mxPoint x="-2" as="offset" />
          </mxGeometry>
        </mxCell>
        <mxCell id="cQ-00Yjo2fR3DmtyePb2-69" value="belongs to" style="rounded=1;whiteSpace=wrap;html=1;labelBackgroundColor=none;fillColor=#ffe6cc;strokeColor=#d79b00;" vertex="1" parent="1">
          <mxGeometry x="420" y="850" width="86" height="60" as="geometry" />
        </mxCell>
        <mxCell id="cQ-00Yjo2fR3DmtyePb2-70" value="processes" style="rounded=1;whiteSpace=wrap;html=1;labelBackgroundColor=none;fillColor=#ffe6cc;strokeColor=#d79b00;" vertex="1" parent="1">
          <mxGeometry x="250" y="1050" width="120" height="60" as="geometry" />
        </mxCell>
        <mxCell id="cQ-00Yjo2fR3DmtyePb2-71" value="belongs to" style="rounded=1;whiteSpace=wrap;html=1;labelBackgroundColor=none;fillColor=#ffe6cc;strokeColor=#d79b00;" vertex="1" parent="1">
          <mxGeometry x="50" y="850" width="120" height="60" as="geometry" />
        </mxCell>
        <mxCell id="cQ-00Yjo2fR3DmtyePb2-72" value="user" style="swimlane;fontStyle=0;childLayout=stackLayout;horizontal=1;startSize=30;horizontalStack=0;resizeParent=1;resizeParentMax=0;resizeLast=0;collapsible=1;marginBottom=0;rounded=1;labelBackgroundColor=none;" vertex="1" parent="1">
          <mxGeometry x="590" y="250" width="140" height="120" as="geometry" />
        </mxCell>
        <mxCell id="cQ-00Yjo2fR3DmtyePb2-73" value="id" style="text;strokeColor=none;fillColor=none;align=left;verticalAlign=middle;spacingLeft=4;spacingRight=4;overflow=hidden;points=[[0,0.5],[1,0.5]];portConstraint=eastwest;rotatable=0;rounded=1;labelBackgroundColor=none;fontStyle=4" vertex="1" parent="cQ-00Yjo2fR3DmtyePb2-72">
          <mxGeometry y="30" width="140" height="30" as="geometry" />
        </mxCell>
        <mxCell id="cQ-00Yjo2fR3DmtyePb2-74" value="username" style="text;strokeColor=none;fillColor=none;align=left;verticalAlign=middle;spacingLeft=4;spacingRight=4;overflow=hidden;points=[[0,0.5],[1,0.5]];portConstraint=eastwest;rotatable=0;rounded=1;labelBackgroundColor=none;" vertex="1" parent="cQ-00Yjo2fR3DmtyePb2-72">
          <mxGeometry y="60" width="140" height="30" as="geometry" />
        </mxCell>
        <mxCell id="cQ-00Yjo2fR3DmtyePb2-75" value="password" style="text;strokeColor=none;fillColor=none;align=left;verticalAlign=middle;spacingLeft=4;spacingRight=4;overflow=hidden;points=[[0,0.5],[1,0.5]];portConstraint=eastwest;rotatable=0;rounded=1;labelBackgroundColor=none;" vertex="1" parent="cQ-00Yjo2fR3DmtyePb2-72">
          <mxGeometry y="90" width="140" height="30" as="geometry" />
        </mxCell>
        <mxCell id="cQ-00Yjo2fR3DmtyePb2-76" value="" style="endArrow=none;html=1;rounded=0;exitX=1.005;exitY=0.34;exitDx=0;exitDy=0;exitPerimeter=0;" edge="1" parent="1" source="cQ-00Yjo2fR3DmtyePb2-4">
          <mxGeometry relative="1" as="geometry">
            <mxPoint x="450" y="320" as="sourcePoint" />
            <mxPoint x="590" y="319.65999999999997" as="targetPoint" />
          </mxGeometry>
        </mxCell>
        <mxCell id="cQ-00Yjo2fR3DmtyePb2-77" value="1" style="resizable=0;html=1;align=left;verticalAlign=bottom;rounded=1;labelBackgroundColor=none;fillColor=#FFF5F5;" connectable="0" vertex="1" parent="cQ-00Yjo2fR3DmtyePb2-76">
          <mxGeometry x="-1" relative="1" as="geometry">
            <mxPoint as="offset" />
          </mxGeometry>
        </mxCell>
        <mxCell id="cQ-00Yjo2fR3DmtyePb2-78" value="1, n" style="resizable=0;html=1;align=right;verticalAlign=bottom;rounded=1;labelBackgroundColor=none;fillColor=#FFF5F5;" connectable="0" vertex="1" parent="cQ-00Yjo2fR3DmtyePb2-76">
          <mxGeometry x="1" relative="1" as="geometry">
            <mxPoint x="-2" as="offset" />
          </mxGeometry>
        </mxCell>
        <mxCell id="cQ-00Yjo2fR3DmtyePb2-79" value="manages" style="rounded=1;whiteSpace=wrap;html=1;fillColor=#ffe6cc;strokeColor=#d79b00;" vertex="1" parent="1">
          <mxGeometry x="470" y="290" width="90" height="60" as="geometry" />
        </mxCell>
      </root>
    </mxGraphModel>
  </diagram>
</mxfile>
